# xmcd
#
# Track frame offsets:
#	150
#	17301
#	34349
#	48129
#	66872
#	85522
#	93482
#	109403
#	129679
#	144206
#	159651
#	176194
#	199196
#	217352
#	230584
#	244161
#	258907
#	292638
#	308197
#	325422
#
# Disc length: 4434 seconds
#
# Revision: 1
# Processed by: cddbd v1.5.2PL0 Copyright (c) Steve Scherf et al.
# Submitted via: audiograbber 1.83.01
#
DISCID=1f115014
DTITLE=Jon Spencer - Acme Plus
DYEAR=2001
DGENRE=Blues
TTITLE0=Wait A Minute
TTITLE1=Get Down Lover
TTITLE2=Confused
TTITLE3=Magical Colors
TTITLE4=Not Yet
TTITLE5=Get Old
TTITLE6=Bacon
TTITLE7=Blue Green Olga
TTITLE8=Heavy
TTITLE9=Lap Dance
TTITLE10=Right Time, Wrong Place
TTITLE11=Leave Me alone
TTITLE12=So Trance No.1
TTITLE13=Electricity
TTITLE14=New Year
TTITLE15=Chowder
TTITLE16=TATB
TTITLE17=Hell
TTITLE18=I Wann Make It Alright
TTITLE19=SHHH
EXTD=
EXTT0=
EXTT1=
EXTT2=
EXTT3=
EXTT4=
EXTT5=
EXTT6=
EXTT7=
EXTT8=
EXTT9=
EXTT10=
EXTT11=
EXTT12=
EXTT13=
EXTT14=
EXTT15=
EXTT16=
EXTT17=
EXTT18=
EXTT19=
PLAYORDER=
